<?xml version="1.0" encoding="UTF-8" standalone="no"?>
<!-- Pipe (SPR) Open Graph image — 1200×630, hero aesthetic.
     Source: edit this SVG in Inkscape, then:
       inkscape website/og-image.svg -o website/og-image.png -->
<svg
   width="1200"
   height="630"
   viewBox="0 0 1200 630"
   version="1.1"
   id="og"
   xmlns="http://www.w3.org/2000/svg"
   xmlns:sodipodi="http://sodipodi.sourceforge.net/DTD/sodipodi-0.0.dtd"
   xmlns:inkscape="http://www.inkscape.org/namespaces/inkscape"
   xmlns:svg="http://www.w3.org/2000/svg">
  <sodipodi:namedview
     id="namedview"
     pagecolor="#07070c"
     bordercolor="#666666"
     borderopacity="1.0"
     inkscape:pageshadow="2"
     inkscape:pageopacity="1.0"
     inkscape:pagecheckerboard="0"
     showgrid="false" />
  <defs id="defs">
    <linearGradient id="bgGrad" x1="0" y1="0" x2="0" y2="1">
      <stop offset="0" stop-color="#0d0d16"/>
      <stop offset="1" stop-color="#07070c"/>
    </linearGradient>
    <radialGradient id="glowTop" cx="0.5" cy="0" r="1">
      <stop offset="0" stop-color="#a855f7" stop-opacity="0.22"/>
      <stop offset="0.55" stop-color="#a855f7" stop-opacity="0.06"/>
      <stop offset="1" stop-color="#a855f7" stop-opacity="0"/>
    </radialGradient>
    <linearGradient id="logoGrad" x1="0" y1="0" x2="1" y2="1">
      <stop offset="0" stop-color="#f300ff"/>
      <stop offset="1" stop-color="#60008a"/>
    </linearGradient>
    <linearGradient id="wordmarkGrad" x1="0" y1="0" x2="1" y2="0">
      <stop offset="0" stop-color="#a855f7"/>
      <stop offset="1" stop-color="#7c3aed"/>
    </linearGradient>
  </defs>

  <rect id="bg" width="1200" height="630" fill="url(#bgGrad)"/>
  <rect id="glow" width="1200" height="420" fill="url(#glowTop)"/>

  <!-- Logo mark -->
  <g id="logoMark" transform="translate(462 64) scale(0.5)" fill="url(#logoGrad)">
    <path d="M34.647384,462.15531 c -6.85125,-2.27502 -11.84459,-5.32738 -16.073,-9.82522 -5.39182,-5.73537 -6.96053,-8.4201 -8.9810399,-15.37042 -4.80026,-16.5123 3.9342899,-34.63384 20.3788899,-42.28004 4.73067,-2.19961 7.08975,-2.63876 14.17515,-2.63876 7.0854,0 9.44448,0.43915 14.17515,2.63876 6.66671,3.0998 13.68639,9.26095 16.39835,14.39277 l 1.9265,3.64549 7.09301,-0.58414 c 10.94245,-0.90115 17.830776,-3.98116 25.154466,-11.24745 7.58188,-7.52245 11.4118,-15.13227 14.26173,-28.33723 5.19387,-24.06542 7.43706,-32.13837 11.12839,-40.04955 12.21623,-26.18166 35.43532,-42.65916 65.63989,-46.58156 l 5.27749,-0.68535 -0.27749,14.79594 -0.27749,14.79593 -6.2071,1.26499 c -10.02626,2.04332 -18.94804,6.8859 -26.38157,14.31943 -8.33405,8.33404 -12.23172,16.31733 -15.56917,31.88911 -5.034,23.48744 -7.38045,31.70218 -11.33646,39.68806 -11.90266,24.02751 -33.03601,38.2264 -59.840706,40.20524 -8.22187,0.60697 -8.36634,0.66412 -10.64411,4.21079 -6.38233,9.93781 -17.21253,16.20093 -28.96618,16.75118 -4.10429,0.19214 -8.72757,-0.22523 -11.0547,-0.99797 z m 17.15532,-19.29847 c 11.12433,-5.27884 12.33124,-22.24821 2.10049,-29.53315 -4.20764,-2.9961 -12.30578,-3.60804 -17.17429,-1.29778 -13.22375,6.27508 -12.31619,26.58921 1.41848,31.75013 3.07407,1.15511 10.31058,0.66799 13.65532,-0.9192 z m 147.844676,-0.0219 c -16.49073,-3.55037 -28.12685,-13.71387 -32.61385,-28.48634 -1.90349,-6.26683 -2.04606,-8.71862 -1.66315,-28.60272 0.38623,-20.05635 0.61883,-22.35082 2.98977,-29.49229 1.41403,-4.25917 3.99298,-9.95997 5.731,-12.66844 3.43096,-5.34669 11.48946,-12.11721 17.32377,-14.55494 l 3.66669,-1.53204 0.28289,39.9201 0.28288,39.92009 2.34483,2.49498 c 2.98556,3.17673 6.47174,4.04485 10.67395,2.65799 6.7231,-2.21882 6.34716,2.60317 6.71511,-86.13282 0.30838,-74.37047 0.46836,-80.77098 2.14602,-85.86098 7.32014,-22.20927 24.19467,-38.10225 45.12009,-42.4956 20.07726,-4.21528 39.70102,1.56644 53.96932,15.90089 11.9258,11.98108 17.80341,25.8782 17.80341,42.09471 0,15.80428 -4.97345,27.96795 -16.31911,39.91197 -12.62834,13.29436 -26.62297,18.58803 -49.14032,18.58803 h -12.86677 l 0.27674,-14.75 0.27673,-14.75 13.5,-0.54034 c 14.49146,-0.58003 17.84981,-1.59662 24.91563,-7.54212 7.61289,-6.40582 11.00514,-20.11857 7.55015,-30.52056 -2.52445,-7.60041 -11.12884,-16.1255 -18.47838,-18.30808 -11.53528,-3.42561 -20.59586,-1.14044 -29.0674,7.3311 -9.40948,9.40948 -8.91813,4.23787 -8.93187,94.0115 -0.0126,82.6383 0.005,82.31044 -4.9284,91.96054 -3.14803,6.15786 -10.65499,13.86917 -16.27313,16.7161 -8.44954,4.2817 -18.57203,6.17488 -25.2866,4.72927 z m 61,-79.22932 -4,-0.60809 V 348.00107 333.0046 l 4,0.49647 c 8.73107,1.08366 27.06511,0.30444 34,-1.44505 7.92454,-1.99915 23.2119,-8.87883 29.67821,-13.3559 18.14751,-12.56479 33.07094,-31.94726 42.45596,-55.1416 5.14364,-12.71207 8.2808,-24.52728 12.28009,-46.24941 3.93341,-21.36425 7.10181,-32.12442 13.04785,-44.31158 7.7228,-15.82886 19.76987,-28.77838 34.36721,-36.94168 11.60858,-6.49189 24.04316,-9.86108 40.92068,-11.08761 l 9.75,-0.70855 v -14.38105 c 0,-7.90959 0.30207,-14.381076 0.67126,-14.381076 0.36919,0 1.38169,0.62751 2.25,1.39447 0.86831,0.76695 14.85374,10.681166 31.07874,22.031586 16.225,11.35043 29.5,21.05666 29.5,21.56942 0,0.51275 -8.55,7.07623 -19,14.5855 -10.45,7.50928 -24.47231,17.65053 -31.16069,22.53613 -6.68838,4.88559 -12.42588,8.88289 -12.75,8.88289 -0.32412,0 -0.58931,-6.81372 -0.58931,-15.14161 v -15.14161 l -10.75,0.55676 c -16.86231,0.87332 -27.2264,5.44943 -37.29646,16.46768 -9.3109,10.18761 -13.30277,20.23894 -18.53046,46.65876 -8.77181,44.33117 -14.98624,61.75351 -30.1687,84.5788 -17.3228,26.0431 -45.47526,47.46677 -72.25438,54.9847 -15.33175,4.30421 -35.10261,6.02932 -47.5,4.14462 z M 165.39752,261.89528 c 0.40117,-20.73482 0.76265,-25.0227 2.7312,-32.39771 14.9336,-55.94736 67.06098,-90.14169 124.2702,-81.51833 29.51559,4.449 56.64452,21.53849 73.62368,46.3782 3.76881,5.5136 4.91661,8.02217 4.57549,10 -3.27759,19.00406 -5.79844,31.6372 -7.48259,37.4987 -2.52634,8.79266 -7.24675,21.64231 -7.94921,21.63894 -0.2854,-10e-4 -0.60102,-4.16387 -0.70137,-9.25 -0.69395,-35.1704 -24.9982,-66.04245 -59.31754,-75.34703 -10.14143,-2.74952 -31.11905,-2.53528 -41.44341,0.42326 -21.88631,6.27171 -39.85751,21.01343 -49.48654,40.59363 -6.4974,13.21218 -8.15677,20.70237 -8.78623,39.66009 l -0.55043,16.57745 -6.11669,1.25721 c -4.98905,1.02543 -14.40825,4.29236 -22.47281,7.7944 -1.12726,0.48951 -1.27808,-3.44404 -0.89375,-23.30881 z"/>
  </g>

  <!-- Wordmark -->
  <text id="wordmark" x="600" y="448" text-anchor="middle"
        font-family="Liberation Sans, Arial, sans-serif" font-weight="800"
        font-size="92" letter-spacing="-2" fill="url(#wordmarkGrad)">Pipe<tspan fill="#e8e8f0">.lang</tspan></text>

  <!-- Tagline -->
  <text id="tagline" x="600" y="510" text-anchor="middle"
        font-family="Liberation Sans, Arial, sans-serif" font-weight="400"
        font-size="30" letter-spacing="0.5" fill="#9090a8">The first language with built-in MCP</text>
</svg>
